M48
;Layer_Color=9474304
;FILE_FORMAT=2:5
INCH,LZ
;TYPE=PLATED
T1F00S00C0.01575
T2F00S00C0.03543
T3F00S00C0.05906
T4F00S00C0.06693
T5F00S00C0.11811
%
T01
X020811Y0146221
X0221181Y0153386
X0525591Y0136772
X0532598Y0159055
X0532559Y0174331
X0532638Y0186767
X0491457Y0225512
X0483476Y0239219
X0483817Y025128
X0497559Y0254528
X0470866Y0281968
X045563Y0282047
X0441968Y0275866
X0439921Y0294724
X0427334
X043315Y026311
X0444764Y0255236
Y0250118
X0449882
X0455
Y0255236
X0449882
Y0245
X0444764
X0455
X0458475Y0228614
X04675Y0235
X0468287Y0252477
X0462658Y0268934
X0460512Y0302913
X0408757Y0259065
X0410221Y0253835
X0412224Y0247856
X0415478Y0239898
X0392911Y0237792
X0388053Y0242567
X0387735Y0249979
X0376003Y0216383
X0362669Y0227049
X0433339Y0233035
X0437965Y0228628
X0314337Y0262211
X0321404Y0307182
X0284204Y030696
X0279791Y0310061
X0276063Y0298976
X0291614Y0296063
X0291457Y0270551
X0240433Y0273031
X0248134Y0284354
X0254252Y0304528
X0221772Y0259921
X0221142Y0176693
X0221299Y0158937
X0208032Y0183819
X0205Y0338583
X022122Y0346063
X0221299Y035252
X0221142Y0369173
X0221772Y0382008
X0224569Y0389823
X0234993Y0388154
X0267008Y0390748
X0267047Y0400591
X0292126Y0356457
X0304173Y0343937
X0302123Y0322006
X029704Y032646
X0285539Y031739
X0281992Y0314043
X0276063Y0330551
X0254213Y0322992
X0308776Y0316415
X031026Y0369118
X0207441Y0376417
X0326233Y0379183
X0345056Y0381275
X0355771Y0398
X0369606Y0370551
X0375433Y0371969
X0382742Y0372274
X0379712Y0377553
X0341174Y0352309
X0321929Y0359803
X031962Y032485
X0323096Y0314063
X0313785Y0315346
X0345905Y0316968
X0387717Y0319488
X0424213Y0357441
X0443032Y0370866
X0436509Y0434102
X0455982Y0462327
X0480972Y0419604
X048093Y0415007
X0481302Y0410227
X0485366Y0406277
X0491604Y0406275
X0491606Y0423721
X0485703Y0423761
X0505236Y0390079
X0505276Y0375331
X0505236Y0360118
X0505721Y0345005
X0532008Y0384291
X0527638Y0400551
T02
X025Y012
X027
X032
X034
X039
X041
X046
X048
Y017
X046
X041
X039
X034
X032
X027
X025
X025059Y0421
X0260591
X027059
X0280591
X0290591
X030059
X0310591
X0303622Y04575
X0293622
X0283622
X0273622
X0263622
X0253622
X0243622
X0233622
Y04675
X0243622
X0253622
X0263622
X0273622
X0283622
X0293622
X0303622
X022Y0448287
Y0438287
X0240591Y0421
X032059
X0330591
X0340591
X035059
X0360591
X037059
X0380591
X0390591
X0395Y0445
X0385
X0405
X044Y04475
X045
X036Y04575
X035
X034
Y04675
X035
X036
X05225Y037
Y036
T03
X05225Y0246063
Y029
Y03275
T04
X05125Y0236063
X05325
Y0256063
X05125
Y028
X05325
Y03
X05125
Y03175
X05325
Y03375
X05125
T05
X0211063Y0125
X0533898
Y0204465
X0469331
X0211063
Y0401315
Y0421
Y0465
X0469331Y0401315
X0533898Y0421
Y0465
M30
