%FSLAX25Y25*%
%MOIN*%
G70*
G01*
G75*
G04 Layer_Color=65535*
%ADD10C,0.00984*%
%ADD11C,0.01181*%
%ADD12R,0.07480X0.09350*%
%ADD13R,0.07480X0.04626*%
%ADD14R,0.08268X0.05709*%
%ADD15R,0.08268X0.05630*%
%ADD16R,0.05433X0.01575*%
%ADD17R,0.04331X0.02559*%
%ADD18R,0.02756X0.03543*%
%ADD19R,0.02165X0.06890*%
%ADD20R,0.06890X0.02165*%
%ADD21R,0.10236X0.04331*%
%ADD22R,0.05512X0.05512*%
%ADD23R,0.09449X0.12598*%
%ADD24R,0.09449X0.03937*%
%ADD25R,0.04528X0.02362*%
%ADD26R,0.03543X0.02756*%
%ADD27R,0.03150X0.03543*%
%ADD28R,0.03543X0.03150*%
%ADD29R,0.02362X0.00984*%
%ADD30R,0.00984X0.02362*%
%ADD31R,0.20079X0.20079*%
%ADD32R,0.04331X0.10236*%
%ADD33R,0.05512X0.05512*%
%ADD34R,0.07874X0.21654*%
%ADD35R,0.05906X0.05906*%
%ADD36C,0.03937*%
%ADD37C,0.04724*%
%ADD38C,0.01000*%
%ADD39C,0.05906*%
%ADD40C,0.06299*%
%ADD41R,0.06299X0.06299*%
%ADD42C,0.07874*%
%ADD43C,0.11024*%
%ADD44R,0.05906X0.05906*%
%ADD45C,0.19685*%
%ADD46C,0.20472*%
%ADD47C,0.03150*%
%ADD48C,0.03543*%
%ADD49C,0.00000*%
%ADD50C,0.02362*%
%ADD51C,0.00787*%
%ADD52C,0.00800*%
D10*
X365216Y362815D02*
G03*
X365216Y362815I-492J0D01*
G01*
X273622Y289882D02*
G03*
X273622Y289882I-492J0D01*
G01*
X511909Y402008D02*
G03*
X511909Y402008I-492J0D01*
G01*
X223563Y274587D02*
G03*
X223563Y274587I-492J0D01*
G01*
X426063Y372087D02*
G03*
X426063Y372087I-492J0D01*
G01*
X433051Y263602D02*
G03*
X433051Y263602I-492J0D01*
G01*
X243563Y264587D02*
G03*
X243563Y264587I-492J0D01*
G01*
X446063Y362087D02*
G03*
X446063Y362087I-492J0D01*
G01*
X386791Y271299D02*
G03*
X386791Y271299I-492J0D01*
G01*
D38*
X230591Y411000D02*
Y431000D01*
Y411000D02*
X400591D01*
Y431000D01*
X230591D02*
X400591D01*
X210669Y180354D02*
X217756D01*
X210669Y149646D02*
X217756D01*
X210669Y372854D02*
X217756D01*
X210669Y342146D02*
X217756D01*
X255000Y170000D02*
X265000D01*
X255000Y120000D02*
X265000D01*
X285000D02*
Y170000D01*
X235000Y120000D02*
Y170000D01*
X275000D02*
X285000D01*
X275000Y120000D02*
X285000D01*
X235000D02*
X245000D01*
X235000Y170000D02*
X245000D01*
X325000D02*
X335000D01*
X325000Y120000D02*
X335000D01*
X355000D02*
Y170000D01*
X305000Y120000D02*
Y170000D01*
X345000D02*
X355000D01*
X345000Y120000D02*
X355000D01*
X305000D02*
X315000D01*
X305000Y170000D02*
X315000D01*
X395000D02*
X405000D01*
X395000Y120000D02*
X405000D01*
X425000D02*
Y170000D01*
X375000Y120000D02*
Y170000D01*
X415000D02*
X425000D01*
X415000Y120000D02*
X425000D01*
X375000D02*
X385000D01*
X375000Y170000D02*
X385000D01*
X465000D02*
X475000D01*
X465000Y120000D02*
X475000D01*
X495000D02*
Y170000D01*
X445000Y120000D02*
Y170000D01*
X485000D02*
X495000D01*
X485000Y120000D02*
X495000D01*
X445000D02*
X455000D01*
X445000Y170000D02*
X455000D01*
X214786Y190998D02*
X212787D01*
X213786D01*
Y186000D01*
X212787Y185000D01*
X211787D01*
X210787Y186000D01*
X220784Y185000D02*
X216786D01*
X220784Y188999D01*
Y189998D01*
X219784Y190998D01*
X217785D01*
X216786Y189998D01*
X415000Y425000D02*
Y430998D01*
X417999D01*
X418999Y429998D01*
Y427999D01*
X417999Y426999D01*
X415000D01*
X416999D02*
X418999Y425000D01*
X420998D02*
X422997D01*
X421998D01*
Y430998D01*
X420998Y429998D01*
X429995Y430998D02*
X425996D01*
Y427999D01*
X427996Y428999D01*
X428996D01*
X429995Y427999D01*
Y426000D01*
X428996Y425000D01*
X426996D01*
X425996Y426000D01*
X255000Y150998D02*
Y145000D01*
X257999D01*
X258999Y146000D01*
Y146999D01*
X257999Y147999D01*
X255000D01*
X257999D01*
X258999Y148999D01*
Y149998D01*
X257999Y150998D01*
X255000D01*
X260998D02*
X264997D01*
X262997D01*
Y145000D01*
X266996D02*
X268995D01*
X267996D01*
Y150998D01*
X266996Y149998D01*
X325000Y150998D02*
Y145000D01*
X327999D01*
X328999Y146000D01*
Y146999D01*
X327999Y147999D01*
X325000D01*
X327999D01*
X328999Y148999D01*
Y149998D01*
X327999Y150998D01*
X325000D01*
X330998D02*
X334997D01*
X332997D01*
Y145000D01*
X340995D02*
X336996D01*
X340995Y148999D01*
Y149998D01*
X339995Y150998D01*
X337996D01*
X336996Y149998D01*
X395000Y150998D02*
Y145000D01*
X397999D01*
X398999Y146000D01*
Y146999D01*
X397999Y147999D01*
X395000D01*
X397999D01*
X398999Y148999D01*
Y149998D01*
X397999Y150998D01*
X395000D01*
X400998D02*
X404997D01*
X402997D01*
Y145000D01*
X406996Y149998D02*
X407996Y150998D01*
X409995D01*
X410995Y149998D01*
Y148999D01*
X409995Y147999D01*
X408995D01*
X409995D01*
X410995Y146999D01*
Y146000D01*
X409995Y145000D01*
X407996D01*
X406996Y146000D01*
X460000Y150998D02*
Y145000D01*
X462999D01*
X463999Y146000D01*
Y146999D01*
X462999Y147999D01*
X460000D01*
X462999D01*
X463999Y148999D01*
Y149998D01*
X462999Y150998D01*
X460000D01*
X465998D02*
X469997D01*
X467997D01*
Y145000D01*
X474995D02*
Y150998D01*
X471996Y147999D01*
X475995D01*
X383999Y369998D02*
X382999Y370998D01*
X381000D01*
X380000Y369998D01*
Y366000D01*
X381000Y365000D01*
X382999D01*
X383999Y366000D01*
X385998Y365000D02*
X387997D01*
X386998D01*
Y370998D01*
X385998Y369998D01*
X460002Y273999D02*
X459002Y272999D01*
Y271000D01*
X460002Y270000D01*
X464000D01*
X465000Y271000D01*
Y272999D01*
X464000Y273999D01*
X465000Y279997D02*
Y275998D01*
X461001Y279997D01*
X460002D01*
X459002Y278997D01*
Y276998D01*
X460002Y275998D01*
X476299Y262298D02*
X475299Y263298D01*
X473300D01*
X472300Y262298D01*
Y258300D01*
X473300Y257300D01*
X475299D01*
X476299Y258300D01*
X478298Y262298D02*
X479298Y263298D01*
X481297D01*
X482297Y262298D01*
Y261299D01*
X481297Y260299D01*
X480297D01*
X481297D01*
X482297Y259299D01*
Y258300D01*
X481297Y257300D01*
X479298D01*
X478298Y258300D01*
X445002Y273999D02*
X444002Y272999D01*
Y271000D01*
X445002Y270000D01*
X449000D01*
X450000Y271000D01*
Y272999D01*
X449000Y273999D01*
X450000Y278997D02*
X444002D01*
X447001Y275998D01*
Y279997D01*
X463999Y229998D02*
X462999Y230998D01*
X461000D01*
X460000Y229998D01*
Y226000D01*
X461000Y225000D01*
X462999D01*
X463999Y226000D01*
X469997Y230998D02*
X465998D01*
Y227999D01*
X467997Y228999D01*
X468997D01*
X469997Y227999D01*
Y226000D01*
X468997Y225000D01*
X466998D01*
X465998Y226000D01*
X475180Y234998D02*
X474180Y235998D01*
X472181D01*
X471181Y234998D01*
Y231000D01*
X472181Y230000D01*
X474180D01*
X475180Y231000D01*
X481178Y235998D02*
X479178Y234998D01*
X477179Y232999D01*
Y231000D01*
X478179Y230000D01*
X480178D01*
X481178Y231000D01*
Y231999D01*
X480178Y232999D01*
X477179D01*
X493999Y259998D02*
X492999Y260998D01*
X491000D01*
X490000Y259998D01*
Y256000D01*
X491000Y255000D01*
X492999D01*
X493999Y256000D01*
X495998Y260998D02*
X499997D01*
Y259998D01*
X495998Y256000D01*
Y255000D01*
X293999Y269998D02*
X292999Y270998D01*
X291000D01*
X290000Y269998D01*
Y266000D01*
X291000Y265000D01*
X292999D01*
X293999Y266000D01*
X295998Y265000D02*
X297997D01*
X296998D01*
Y270998D01*
X295998Y269998D01*
X300996Y265000D02*
X302996D01*
X301996D01*
Y270998D01*
X300996Y269998D01*
X347599Y322898D02*
X346599Y323898D01*
X344600D01*
X343600Y322898D01*
Y318900D01*
X344600Y317900D01*
X346599D01*
X347599Y318900D01*
X349598Y317900D02*
X351597D01*
X350598D01*
Y323898D01*
X349598Y322898D01*
X354596D02*
X355596Y323898D01*
X357595D01*
X358595Y322898D01*
Y321899D01*
X357595Y320899D01*
X356596D01*
X357595D01*
X358595Y319899D01*
Y318900D01*
X357595Y317900D01*
X355596D01*
X354596Y318900D01*
X238999Y329998D02*
X237999Y330998D01*
X236000D01*
X235000Y329998D01*
Y326000D01*
X236000Y325000D01*
X237999D01*
X238999Y326000D01*
X240998Y325000D02*
X242997D01*
X241998D01*
Y330998D01*
X240998Y329998D01*
X248995Y325000D02*
Y330998D01*
X245996Y327999D01*
X249995D01*
X238999Y297498D02*
X237999Y298498D01*
X236000D01*
X235000Y297498D01*
Y293500D01*
X236000Y292500D01*
X237999D01*
X238999Y293500D01*
X240998Y292500D02*
X242997D01*
X241998D01*
Y298498D01*
X240998Y297498D01*
X249995Y298498D02*
X245996D01*
Y295499D01*
X247996Y296499D01*
X248995D01*
X249995Y295499D01*
Y293500D01*
X248995Y292500D01*
X246996D01*
X245996Y293500D01*
X383999Y249998D02*
X382999Y250998D01*
X381000D01*
X380000Y249998D01*
Y246000D01*
X381000Y245000D01*
X382999D01*
X383999Y246000D01*
X385998Y245000D02*
X387997D01*
X386998D01*
Y250998D01*
X385998Y249998D01*
X394995Y250998D02*
X392996Y249998D01*
X390996Y247999D01*
Y246000D01*
X391996Y245000D01*
X393995D01*
X394995Y246000D01*
Y246999D01*
X393995Y247999D01*
X390996D01*
X385099Y335398D02*
X384099Y336398D01*
X382100D01*
X381100Y335398D01*
Y331400D01*
X382100Y330400D01*
X384099D01*
X385099Y331400D01*
X387098Y330400D02*
X389097D01*
X388098D01*
Y336398D01*
X387098Y335398D01*
X392096Y336398D02*
X396095D01*
Y335398D01*
X392096Y331400D01*
Y330400D01*
X258999Y384998D02*
X257999Y385998D01*
X256000D01*
X255000Y384998D01*
Y381000D01*
X256000Y380000D01*
X257999D01*
X258999Y381000D01*
X260998Y380000D02*
X262997D01*
X261998D01*
Y385998D01*
X260998Y384998D01*
X265996D02*
X266996Y385998D01*
X268995D01*
X269995Y384998D01*
Y383999D01*
X268995Y382999D01*
X269995Y381999D01*
Y381000D01*
X268995Y380000D01*
X266996D01*
X265996Y381000D01*
Y381999D01*
X266996Y382999D01*
X265996Y383999D01*
Y384998D01*
X266996Y382999D02*
X268995D01*
X488999Y224998D02*
X487999Y225998D01*
X486000D01*
X485000Y224998D01*
Y221000D01*
X486000Y220000D01*
X487999D01*
X488999Y221000D01*
X490998Y220000D02*
X492997D01*
X491998D01*
Y225998D01*
X490998Y224998D01*
X495996Y221000D02*
X496996Y220000D01*
X498995D01*
X499995Y221000D01*
Y224998D01*
X498995Y225998D01*
X496996D01*
X495996Y224998D01*
Y223999D01*
X496996Y222999D01*
X499995D01*
X481499Y304998D02*
X480499Y305998D01*
X478500D01*
X477500Y304998D01*
Y301000D01*
X478500Y300000D01*
X480499D01*
X481499Y301000D01*
X487497Y300000D02*
X483498D01*
X487497Y303999D01*
Y304998D01*
X486497Y305998D01*
X484498D01*
X483498Y304998D01*
X489496D02*
X490496Y305998D01*
X492495D01*
X493495Y304998D01*
Y301000D01*
X492495Y300000D01*
X490496D01*
X489496Y301000D01*
Y304998D01*
X483999Y312498D02*
X482999Y313498D01*
X481000D01*
X480000Y312498D01*
Y308500D01*
X481000Y307500D01*
X482999D01*
X483999Y308500D01*
X489997Y307500D02*
X485998D01*
X489997Y311499D01*
Y312498D01*
X488997Y313498D01*
X486998D01*
X485998Y312498D01*
X491996Y307500D02*
X493996D01*
X492996D01*
Y313498D01*
X491996Y312498D01*
X241499Y282498D02*
X240499Y283498D01*
X238500D01*
X237500Y282498D01*
Y278500D01*
X238500Y277500D01*
X240499D01*
X241499Y278500D01*
X247497Y277500D02*
X243498D01*
X247497Y281499D01*
Y282498D01*
X246497Y283498D01*
X244498D01*
X243498Y282498D01*
X253495Y277500D02*
X249496D01*
X253495Y281499D01*
Y282498D01*
X252495Y283498D01*
X250496D01*
X249496Y282498D01*
X443999Y379998D02*
X442999Y380998D01*
X441000D01*
X440000Y379998D01*
Y376000D01*
X441000Y375000D01*
X442999D01*
X443999Y376000D01*
X449997Y375000D02*
X445998D01*
X449997Y378999D01*
Y379998D01*
X448997Y380998D01*
X446998D01*
X445998Y379998D01*
X451996D02*
X452996Y380998D01*
X454995D01*
X455995Y379998D01*
Y378999D01*
X454995Y377999D01*
X453996D01*
X454995D01*
X455995Y376999D01*
Y376000D01*
X454995Y375000D01*
X452996D01*
X451996Y376000D01*
X468999Y344998D02*
X467999Y345998D01*
X466000D01*
X465000Y344998D01*
Y341000D01*
X466000Y340000D01*
X467999D01*
X468999Y341000D01*
X474997Y340000D02*
X470998D01*
X474997Y343999D01*
Y344998D01*
X473997Y345998D01*
X471998D01*
X470998Y344998D01*
X479995Y340000D02*
Y345998D01*
X476996Y342999D01*
X480995D01*
X468999Y384998D02*
X467999Y385998D01*
X466000D01*
X465000Y384998D01*
Y381000D01*
X466000Y380000D01*
X467999D01*
X468999Y381000D01*
X474997Y380000D02*
X470998D01*
X474997Y383999D01*
Y384998D01*
X473997Y385998D01*
X471998D01*
X470998Y384998D01*
X480995Y385998D02*
X476996D01*
Y382999D01*
X478996Y383999D01*
X479995D01*
X480995Y382999D01*
Y381000D01*
X479995Y380000D01*
X477996D01*
X476996Y381000D01*
X535002Y383999D02*
X534002Y382999D01*
Y381000D01*
X535002Y380000D01*
X539000D01*
X540000Y381000D01*
Y382999D01*
X539000Y383999D01*
X540000Y389997D02*
Y385998D01*
X536001Y389997D01*
X535002D01*
X534002Y388997D01*
Y386998D01*
X535002Y385998D01*
X534002Y395995D02*
X535002Y393995D01*
X537001Y391996D01*
X539000D01*
X540000Y392996D01*
Y394995D01*
X539000Y395995D01*
X538001D01*
X537001Y394995D01*
Y391996D01*
X226499Y387498D02*
X225499Y388498D01*
X223500D01*
X222500Y387498D01*
Y383500D01*
X223500Y382500D01*
X225499D01*
X226499Y383500D01*
X232497Y382500D02*
X228498D01*
X232497Y386499D01*
Y387498D01*
X231497Y388498D01*
X229498D01*
X228498Y387498D01*
X234496Y388498D02*
X238495D01*
Y387498D01*
X234496Y383500D01*
Y382500D01*
X510002Y378999D02*
X509002Y377999D01*
Y376000D01*
X510002Y375000D01*
X514000D01*
X515000Y376000D01*
Y377999D01*
X514000Y378999D01*
X515000Y384997D02*
Y380998D01*
X511001Y384997D01*
X510002D01*
X509002Y383997D01*
Y381998D01*
X510002Y380998D01*
Y386996D02*
X509002Y387996D01*
Y389995D01*
X510002Y390995D01*
X511001D01*
X512001Y389995D01*
X513001Y390995D01*
X514000D01*
X515000Y389995D01*
Y387996D01*
X514000Y386996D01*
X513001D01*
X512001Y387996D01*
X511001Y386996D01*
X510002D01*
X512001Y387996D02*
Y389995D01*
X468999Y374998D02*
X467999Y375998D01*
X466000D01*
X465000Y374998D01*
Y371000D01*
X466000Y370000D01*
X467999D01*
X468999Y371000D01*
X474997Y370000D02*
X470998D01*
X474997Y373999D01*
Y374998D01*
X473997Y375998D01*
X471998D01*
X470998Y374998D01*
X476996Y371000D02*
X477996Y370000D01*
X479995D01*
X480995Y371000D01*
Y374998D01*
X479995Y375998D01*
X477996D01*
X476996Y374998D01*
Y373999D01*
X477996Y372999D01*
X480995D01*
X468999Y359998D02*
X467999Y360998D01*
X466000D01*
X465000Y359998D01*
Y356000D01*
X466000Y355000D01*
X467999D01*
X468999Y356000D01*
X470998Y359998D02*
X471998Y360998D01*
X473997D01*
X474997Y359998D01*
Y358999D01*
X473997Y357999D01*
X472997D01*
X473997D01*
X474997Y356999D01*
Y356000D01*
X473997Y355000D01*
X471998D01*
X470998Y356000D01*
X476996Y359998D02*
X477996Y360998D01*
X479995D01*
X480995Y359998D01*
Y356000D01*
X479995Y355000D01*
X477996D01*
X476996Y356000D01*
Y359998D01*
X418999Y319998D02*
X417999Y320998D01*
X416000D01*
X415000Y319998D01*
Y316000D01*
X416000Y315000D01*
X417999D01*
X418999Y316000D01*
X420998Y319998D02*
X421998Y320998D01*
X423997D01*
X424997Y319998D01*
Y318999D01*
X423997Y317999D01*
X422997D01*
X423997D01*
X424997Y316999D01*
Y316000D01*
X423997Y315000D01*
X421998D01*
X420998Y316000D01*
X426996Y315000D02*
X428996D01*
X427996D01*
Y320998D01*
X426996Y319998D01*
X439299Y321098D02*
X438299Y322098D01*
X436300D01*
X435300Y321098D01*
Y317100D01*
X436300Y316100D01*
X438299D01*
X439299Y317100D01*
X441298Y321098D02*
X442298Y322098D01*
X444297D01*
X445297Y321098D01*
Y320099D01*
X444297Y319099D01*
X443297D01*
X444297D01*
X445297Y318099D01*
Y317100D01*
X444297Y316100D01*
X442298D01*
X441298Y317100D01*
X451295Y316100D02*
X447296D01*
X451295Y320099D01*
Y321098D01*
X450295Y322098D01*
X448296D01*
X447296Y321098D01*
X456549Y319848D02*
X455549Y320848D01*
X453550D01*
X452550Y319848D01*
Y315850D01*
X453550Y314850D01*
X455549D01*
X456549Y315850D01*
X458548Y319848D02*
X459548Y320848D01*
X461547D01*
X462547Y319848D01*
Y318849D01*
X461547Y317849D01*
X460547D01*
X461547D01*
X462547Y316849D01*
Y315850D01*
X461547Y314850D01*
X459548D01*
X458548Y315850D01*
X464546Y319848D02*
X465546Y320848D01*
X467545D01*
X468545Y319848D01*
Y318849D01*
X467545Y317849D01*
X466545D01*
X467545D01*
X468545Y316849D01*
Y315850D01*
X467545Y314850D01*
X465546D01*
X464546Y315850D01*
X433999Y284998D02*
X432999Y285998D01*
X431000D01*
X430000Y284998D01*
Y281000D01*
X431000Y280000D01*
X432999D01*
X433999Y281000D01*
X435998Y284998D02*
X436998Y285998D01*
X438997D01*
X439997Y284998D01*
Y283999D01*
X438997Y282999D01*
X437997D01*
X438997D01*
X439997Y281999D01*
Y281000D01*
X438997Y280000D01*
X436998D01*
X435998Y281000D01*
X444995Y280000D02*
Y285998D01*
X441996Y282999D01*
X445995D01*
X495000Y133498D02*
Y127500D01*
X497999D01*
X498999Y128500D01*
Y132498D01*
X497999Y133498D01*
X495000D01*
X500998Y127500D02*
X502997D01*
X501998D01*
Y133498D01*
X500998Y132498D01*
X495000Y153498D02*
Y147500D01*
X497999D01*
X498999Y148500D01*
Y152498D01*
X497999Y153498D01*
X495000D01*
X504997Y147500D02*
X500998D01*
X504997Y151499D01*
Y152498D01*
X503997Y153498D01*
X501998D01*
X500998Y152498D01*
X495000Y143498D02*
Y137500D01*
X497999D01*
X498999Y138500D01*
Y142498D01*
X497999Y143498D01*
X495000D01*
X500998Y142498D02*
X501998Y143498D01*
X503997D01*
X504997Y142498D01*
Y141499D01*
X503997Y140499D01*
X502997D01*
X503997D01*
X504997Y139499D01*
Y138500D01*
X503997Y137500D01*
X501998D01*
X500998Y138500D01*
X495000Y163498D02*
Y157500D01*
X497999D01*
X498999Y158500D01*
Y162498D01*
X497999Y163498D01*
X495000D01*
X503997Y157500D02*
Y163498D01*
X500998Y160499D01*
X504997D01*
X405000Y410998D02*
Y405000D01*
X407999D01*
X408999Y406000D01*
Y409998D01*
X407999Y410998D01*
X405000D01*
X414997D02*
X410998D01*
Y407999D01*
X412997Y408999D01*
X413997D01*
X414997Y407999D01*
Y406000D01*
X413997Y405000D01*
X411998D01*
X410998Y406000D01*
X224789Y361499D02*
Y359499D01*
Y360499D01*
X229788D01*
X230787Y359499D01*
Y358500D01*
X229788Y357500D01*
X230787Y363498D02*
Y365497D01*
Y364498D01*
X224789D01*
X225789Y363498D01*
X492227Y266864D02*
X490228D01*
X491227D01*
Y261866D01*
X490228Y260866D01*
X489228D01*
X488228Y261866D01*
X494226Y265864D02*
X495226Y266864D01*
X497225D01*
X498225Y265864D01*
Y264865D01*
X497225Y263865D01*
X496226D01*
X497225D01*
X498225Y262865D01*
Y261866D01*
X497225Y260866D01*
X495226D01*
X494226Y261866D01*
X496502Y293999D02*
Y291999D01*
Y292999D01*
X501500D01*
X502500Y291999D01*
Y291000D01*
X501500Y290000D01*
X502500Y298997D02*
X496502D01*
X499501Y295998D01*
Y299997D01*
X496502Y326499D02*
Y324499D01*
Y325499D01*
X501500D01*
X502500Y324499D01*
Y323500D01*
X501500Y322500D01*
X496502Y332497D02*
Y328498D01*
X499501D01*
X498501Y330497D01*
Y331497D01*
X499501Y332497D01*
X501500D01*
X502500Y331497D01*
Y329498D01*
X501500Y328498D01*
X258999Y444998D02*
X257999Y445998D01*
X256000D01*
X255000Y444998D01*
Y441000D01*
X256000Y440000D01*
X257999D01*
X258999Y441000D01*
X260998Y445998D02*
Y440000D01*
X264997D01*
X269995Y445998D02*
X267996D01*
X266996Y444998D01*
Y441000D01*
X267996Y440000D01*
X269995D01*
X270995Y441000D01*
Y444998D01*
X269995Y445998D01*
X276993Y444998D02*
X275993Y445998D01*
X273994D01*
X272994Y444998D01*
Y441000D01*
X273994Y440000D01*
X275993D01*
X276993Y441000D01*
X278992Y445998D02*
Y440000D01*
Y441999D01*
X282991Y445998D01*
X279992Y442999D01*
X282991Y440000D01*
X284990Y445998D02*
X288989D01*
X286990D01*
Y440000D01*
X290988D02*
Y443999D01*
X292988Y445998D01*
X294987Y443999D01*
Y440000D01*
Y442999D01*
X290988D01*
X296986Y440000D02*
Y445998D01*
X298986Y443999D01*
X300985Y445998D01*
Y440000D01*
X306983Y445998D02*
X302984D01*
Y440000D01*
X306983D01*
X302984Y442999D02*
X304984D01*
X308982Y440000D02*
Y445998D01*
X311982D01*
X312981Y444998D01*
Y442999D01*
X311982Y441999D01*
X308982D01*
X310982D02*
X312981Y440000D01*
X340000Y445998D02*
X341999D01*
X341000D01*
Y440000D01*
X340000D01*
X341999D01*
X348997Y444998D02*
X347997Y445998D01*
X345998D01*
X344998Y444998D01*
Y443999D01*
X345998Y442999D01*
X347997D01*
X348997Y441999D01*
Y441000D01*
X347997Y440000D01*
X345998D01*
X344998Y441000D01*
X350996Y440000D02*
Y445998D01*
X353995D01*
X354995Y444998D01*
Y442999D01*
X353995Y441999D01*
X350996D01*
X410000Y460000D02*
Y465998D01*
X412999D01*
X413999Y464998D01*
Y462999D01*
X412999Y461999D01*
X410000D01*
X415998Y464998D02*
X416998Y465998D01*
X418997D01*
X419997Y464998D01*
Y463999D01*
X418997Y462999D01*
X417997D01*
X418997D01*
X419997Y461999D01*
Y461000D01*
X418997Y460000D01*
X416998D01*
X415998Y461000D01*
X438999Y469998D02*
X437999Y470998D01*
X436000D01*
X435000Y469998D01*
Y466000D01*
X436000Y465000D01*
X437999D01*
X438999Y466000D01*
X440998Y470998D02*
Y465000D01*
X444997D01*
X449995Y470998D02*
X447996D01*
X446996Y469998D01*
Y466000D01*
X447996Y465000D01*
X449995D01*
X450995Y466000D01*
Y469998D01*
X449995Y470998D01*
X456993Y469998D02*
X455993Y470998D01*
X453994D01*
X452994Y469998D01*
Y466000D01*
X453994Y465000D01*
X455993D01*
X456993Y466000D01*
X458992Y470998D02*
Y465000D01*
Y466999D01*
X462991Y470998D01*
X459992Y467999D01*
X462991Y465000D01*
X464990Y470998D02*
X468989D01*
X466990D01*
Y465000D01*
X470988D02*
Y468999D01*
X472988Y470998D01*
X474987Y468999D01*
Y465000D01*
Y467999D01*
X470988D01*
X476986Y465000D02*
Y470998D01*
X478986Y468999D01*
X480985Y470998D01*
Y465000D01*
X486983Y470998D02*
X482984D01*
Y465000D01*
X486983D01*
X482984Y467999D02*
X484984D01*
X488982Y465000D02*
Y470998D01*
X491982D01*
X492981Y469998D01*
Y467999D01*
X491982Y466999D01*
X488982D01*
X490982D02*
X492981Y465000D01*
X494981Y464000D02*
X498979D01*
X500979Y465000D02*
Y470998D01*
X503978D01*
X504977Y469998D01*
Y467999D01*
X503978Y466999D01*
X500979D01*
X506977Y470998D02*
Y465000D01*
X508976Y466999D01*
X510975Y465000D01*
Y470998D01*
X512975Y465000D02*
Y470998D01*
X515974D01*
X516973Y469998D01*
Y467999D01*
X515974Y466999D01*
X512975D01*
X514974D02*
X516973Y465000D01*
X506502Y355000D02*
X510501D01*
X512500Y356999D01*
X510501Y358999D01*
X506502D01*
Y360998D02*
Y362997D01*
Y361998D01*
X512500D01*
Y360998D01*
Y362997D01*
Y365996D02*
X506502D01*
X512500Y369995D01*
X506502D01*
X205000Y448287D02*
X210998D01*
Y445288D01*
X209998Y444289D01*
X207999D01*
X206999Y445288D01*
Y448287D01*
X210998Y438291D02*
X209998Y440290D01*
X207999Y442289D01*
X206000D01*
X205000Y441290D01*
Y439290D01*
X206000Y438291D01*
X206999D01*
X207999Y439290D01*
Y442289D01*
X246499Y243500D02*
Y247498D01*
X245499Y248498D01*
X243500D01*
X242500Y247498D01*
Y243500D01*
X243500Y242500D01*
X245499D01*
X244499Y244499D02*
X246499Y242500D01*
X245499D02*
X246499Y243500D01*
X248498Y242500D02*
X250497D01*
X249498D01*
Y248498D01*
X248498Y247498D01*
X448999Y341000D02*
Y344998D01*
X447999Y345998D01*
X446000D01*
X445000Y344998D01*
Y341000D01*
X446000Y340000D01*
X447999D01*
X446999Y341999D02*
X448999Y340000D01*
X447999D02*
X448999Y341000D01*
X454997Y340000D02*
X450998D01*
X454997Y343999D01*
Y344998D01*
X453997Y345998D01*
X451998D01*
X450998Y344998D01*
X224649Y279550D02*
Y283548D01*
X223649Y284548D01*
X221650D01*
X220650Y283548D01*
Y279550D01*
X221650Y278550D01*
X223649D01*
X222649Y280549D02*
X224649Y278550D01*
X223649D02*
X224649Y279550D01*
X226648Y283548D02*
X227648Y284548D01*
X229647D01*
X230647Y283548D01*
Y282549D01*
X229647Y281549D01*
X228647D01*
X229647D01*
X230647Y280549D01*
Y279550D01*
X229647Y278550D01*
X227648D01*
X226648Y279550D01*
X427149Y377050D02*
Y381048D01*
X426149Y382048D01*
X424150D01*
X423150Y381048D01*
Y377050D01*
X424150Y376050D01*
X426149D01*
X425149Y378049D02*
X427149Y376050D01*
X426149D02*
X427149Y377050D01*
X432147Y376050D02*
Y382048D01*
X429148Y379049D01*
X433147D01*
X416100Y450400D02*
Y456398D01*
X419099D01*
X420099Y455398D01*
Y453399D01*
X419099Y452399D01*
X416100D01*
X418099D02*
X420099Y450400D01*
X422098D02*
X424097D01*
X423098D01*
Y456398D01*
X422098Y455398D01*
X230000Y442500D02*
Y448498D01*
X232999D01*
X233999Y447498D01*
Y445499D01*
X232999Y444499D01*
X230000D01*
X231999D02*
X233999Y442500D01*
X239997D02*
X235998D01*
X239997Y446499D01*
Y447498D01*
X238997Y448498D01*
X236998D01*
X235998Y447498D01*
X387500Y195000D02*
Y200998D01*
X390499D01*
X391499Y199998D01*
Y197999D01*
X390499Y196999D01*
X387500D01*
X389499D02*
X391499Y195000D01*
X396497D02*
Y200998D01*
X393498Y197999D01*
X397497D01*
X387500Y210000D02*
Y215998D01*
X390499D01*
X391499Y214998D01*
Y212999D01*
X390499Y211999D01*
X387500D01*
X389499D02*
X391499Y210000D01*
X397497Y215998D02*
X393498D01*
Y212999D01*
X395497Y213999D01*
X396497D01*
X397497Y212999D01*
Y211000D01*
X396497Y210000D01*
X394498D01*
X393498Y211000D01*
X387500Y202500D02*
Y208498D01*
X390499D01*
X391499Y207498D01*
Y205499D01*
X390499Y204499D01*
X387500D01*
X389499D02*
X391499Y202500D01*
X397497Y208498D02*
X395497Y207498D01*
X393498Y205499D01*
Y203500D01*
X394498Y202500D01*
X396497D01*
X397497Y203500D01*
Y204499D01*
X396497Y205499D01*
X393498D01*
X387500Y220000D02*
Y225998D01*
X390499D01*
X391499Y224998D01*
Y222999D01*
X390499Y221999D01*
X387500D01*
X389499D02*
X391499Y220000D01*
X393498Y225998D02*
X397497D01*
Y224998D01*
X393498Y221000D01*
Y220000D01*
X225000Y395000D02*
Y400998D01*
X227999D01*
X228999Y399998D01*
Y397999D01*
X227999Y396999D01*
X225000D01*
X226999D02*
X228999Y395000D01*
X230998Y399998D02*
X231998Y400998D01*
X233997D01*
X234997Y399998D01*
Y398999D01*
X233997Y397999D01*
X234997Y396999D01*
Y396000D01*
X233997Y395000D01*
X231998D01*
X230998Y396000D01*
Y396999D01*
X231998Y397999D01*
X230998Y398999D01*
Y399998D01*
X231998Y397999D02*
X233997D01*
X270000Y395000D02*
Y400998D01*
X272999D01*
X273999Y399998D01*
Y397999D01*
X272999Y396999D01*
X270000D01*
X271999D02*
X273999Y395000D01*
X275998Y396000D02*
X276998Y395000D01*
X278997D01*
X279997Y396000D01*
Y399998D01*
X278997Y400998D01*
X276998D01*
X275998Y399998D01*
Y398999D01*
X276998Y397999D01*
X279997D01*
X247500Y200000D02*
X241502D01*
Y202999D01*
X242502Y203999D01*
X244501D01*
X245501Y202999D01*
Y200000D01*
Y201999D02*
X247500Y203999D01*
Y205998D02*
Y207997D01*
Y206998D01*
X241502D01*
X242502Y205998D01*
Y210996D02*
X241502Y211996D01*
Y213996D01*
X242502Y214995D01*
X246500D01*
X247500Y213996D01*
Y211996D01*
X246500Y210996D01*
X242502D01*
X257500Y200000D02*
X251502D01*
Y202999D01*
X252502Y203999D01*
X254501D01*
X255501Y202999D01*
Y200000D01*
Y201999D02*
X257500Y203999D01*
Y205998D02*
Y207997D01*
Y206998D01*
X251502D01*
X252502Y205998D01*
X257500Y210996D02*
Y212996D01*
Y211996D01*
X251502D01*
X252502Y210996D01*
X220000Y242500D02*
Y248498D01*
X222999D01*
X223999Y247498D01*
Y245499D01*
X222999Y244499D01*
X220000D01*
X221999D02*
X223999Y242500D01*
X225998D02*
X227997D01*
X226998D01*
Y248498D01*
X225998Y247498D01*
X234995Y242500D02*
X230996D01*
X234995Y246499D01*
Y247498D01*
X233996Y248498D01*
X231996D01*
X230996Y247498D01*
X425000Y340000D02*
Y345998D01*
X427999D01*
X428999Y344998D01*
Y342999D01*
X427999Y341999D01*
X425000D01*
X426999D02*
X428999Y340000D01*
X430998D02*
X432997D01*
X431998D01*
Y345998D01*
X430998Y344998D01*
X435996D02*
X436996Y345998D01*
X438996D01*
X439995Y344998D01*
Y343999D01*
X438996Y342999D01*
X437996D01*
X438996D01*
X439995Y341999D01*
Y341000D01*
X438996Y340000D01*
X436996D01*
X435996Y341000D01*
X456100Y330400D02*
Y336398D01*
X459099D01*
X460099Y335398D01*
Y333399D01*
X459099Y332399D01*
X456100D01*
X458099D02*
X460099Y330400D01*
X462098D02*
X464097D01*
X463098D01*
Y336398D01*
X462098Y335398D01*
X470095Y330400D02*
Y336398D01*
X467096Y333399D01*
X471095D01*
X420000Y260998D02*
Y256000D01*
X421000Y255000D01*
X422999D01*
X423999Y256000D01*
Y260998D01*
X425998Y255000D02*
X427997D01*
X426998D01*
Y260998D01*
X425998Y259998D01*
X352900Y386298D02*
Y381300D01*
X353900Y380300D01*
X355899D01*
X356899Y381300D01*
Y386298D01*
X362897Y380300D02*
X358898D01*
X362897Y384299D01*
Y385298D01*
X361897Y386298D01*
X359898D01*
X358898Y385298D01*
X266400Y363598D02*
Y358600D01*
X267400Y357600D01*
X269399D01*
X270399Y358600D01*
Y363598D01*
X272398Y362598D02*
X273398Y363598D01*
X275397D01*
X276397Y362598D01*
Y361599D01*
X275397Y360599D01*
X274397D01*
X275397D01*
X276397Y359599D01*
Y358600D01*
X275397Y357600D01*
X273398D01*
X272398Y358600D01*
X483700Y438398D02*
Y433400D01*
X484700Y432400D01*
X486699D01*
X487699Y433400D01*
Y438398D01*
X489698Y433400D02*
X490698Y432400D01*
X492697D01*
X493697Y433400D01*
Y437398D01*
X492697Y438398D01*
X490698D01*
X489698Y437398D01*
Y436399D01*
X490698Y435399D01*
X493697D01*
X359002Y285000D02*
X360002D01*
X362001Y286999D01*
X360002Y288999D01*
X359002D01*
X362001Y286999D02*
X365000D01*
Y290998D02*
Y292997D01*
Y291998D01*
X359002D01*
X360002Y290998D01*
X485000Y210000D02*
Y215998D01*
X487999D01*
X488999Y214998D01*
Y212999D01*
X487999Y211999D01*
X485000D01*
X486999D02*
X488999Y210000D01*
X490998D02*
X492997D01*
X491998D01*
Y215998D01*
X490998Y214998D01*
X499995Y215998D02*
X497996Y214998D01*
X495996Y212999D01*
Y211000D01*
X496996Y210000D01*
X498995D01*
X499995Y211000D01*
Y211999D01*
X498995Y212999D01*
X495996D01*
X224002Y130000D02*
X229000D01*
X230000Y131000D01*
Y132999D01*
X229000Y133999D01*
X224002D01*
X225002Y139997D02*
X224002Y138997D01*
Y136998D01*
X225002Y135998D01*
X226001D01*
X227001Y136998D01*
Y138997D01*
X228001Y139997D01*
X229000D01*
X230000Y138997D01*
Y136998D01*
X229000Y135998D01*
X224002Y141996D02*
X230000D01*
Y144995D01*
X229000Y145995D01*
X228001D01*
X227001Y144995D01*
Y141996D01*
Y144995D01*
X226001Y145995D01*
X225002D01*
X224002Y144995D01*
Y141996D01*
Y156991D02*
Y154992D01*
X225002Y153992D01*
X229000D01*
X230000Y154992D01*
Y156991D01*
X229000Y157991D01*
X225002D01*
X224002Y156991D01*
Y159990D02*
Y163989D01*
Y161990D01*
X230000D01*
X225002Y169987D02*
X224002Y168987D01*
Y166988D01*
X225002Y165988D01*
X229000D01*
X230000Y166988D01*
Y168987D01*
X229000Y169987D01*
X227001D01*
Y167988D01*
X210000Y280000D02*
X204002D01*
Y282999D01*
X205002Y283999D01*
X207001D01*
X208001Y282999D01*
Y280000D01*
X210000Y286998D02*
Y288997D01*
X209000Y289997D01*
X207001D01*
X206001Y288997D01*
Y286998D01*
X207001Y285998D01*
X209000D01*
X210000Y286998D01*
X206001Y291996D02*
X209000D01*
X210000Y292996D01*
X209000Y293995D01*
X210000Y294995D01*
X209000Y295995D01*
X206001D01*
X210000Y300993D02*
Y298994D01*
X209000Y297994D01*
X207001D01*
X206001Y298994D01*
Y300993D01*
X207001Y301993D01*
X208001D01*
Y297994D01*
X206001Y303992D02*
X210000D01*
X208001D01*
X207001Y304992D01*
X206001Y305992D01*
Y306991D01*
X210000Y316988D02*
Y318987D01*
X209000Y319987D01*
X207001D01*
X206001Y318987D01*
Y316988D01*
X207001Y315988D01*
X209000D01*
X210000Y316988D01*
Y321986D02*
X206001D01*
Y324985D01*
X207001Y325985D01*
X210000D01*
Y327984D02*
Y329984D01*
Y328984D01*
X204002D01*
Y327984D01*
X206001Y332983D02*
X209000D01*
X210000Y333982D01*
Y336982D01*
X211000D01*
X211999Y335982D01*
Y334982D01*
X210000Y336982D02*
X206001D01*
X508999Y224998D02*
X507999Y225998D01*
X506000D01*
X505000Y224998D01*
Y221000D01*
X506000Y220000D01*
X507999D01*
X508999Y221000D01*
X510998Y220000D02*
Y225998D01*
X512997Y223999D01*
X514997Y225998D01*
Y220000D01*
X519995Y225998D02*
X517996D01*
X516996Y224998D01*
Y221000D01*
X517996Y220000D01*
X519995D01*
X520995Y221000D01*
Y224998D01*
X519995Y225998D01*
X526993Y224998D02*
X525993Y225998D01*
X523994D01*
X522994Y224998D01*
Y223999D01*
X523994Y222999D01*
X525993D01*
X526993Y221999D01*
Y221000D01*
X525993Y220000D01*
X523994D01*
X522994Y221000D01*
X505000Y350998D02*
Y345000D01*
X508999D01*
X510998Y350998D02*
Y346999D01*
X512997Y345000D01*
X514997Y346999D01*
Y350998D01*
X516996D02*
Y345000D01*
X519995D01*
X520995Y346000D01*
Y349998D01*
X519995Y350998D01*
X516996D01*
X526993Y349998D02*
X525993Y350998D01*
X523994D01*
X522994Y349998D01*
Y348999D01*
X523994Y347999D01*
X525993D01*
X526993Y346999D01*
Y346000D01*
X525993Y345000D01*
X523994D01*
X522994Y346000D01*
X528992Y344000D02*
X532991D01*
X534990Y345000D02*
Y350998D01*
X538989Y345000D01*
Y350998D01*
X505000Y270998D02*
Y265000D01*
X508999D01*
X510998Y270998D02*
Y266999D01*
X512997Y265000D01*
X514997Y266999D01*
Y270998D01*
X516996D02*
Y265000D01*
X519995D01*
X520995Y266000D01*
Y269998D01*
X519995Y270998D01*
X516996D01*
X526993Y269998D02*
X525993Y270998D01*
X523994D01*
X522994Y269998D01*
Y268999D01*
X523994Y267999D01*
X525993D01*
X526993Y266999D01*
Y266000D01*
X525993Y265000D01*
X523994D01*
X522994Y266000D01*
X528992Y264000D02*
X532991D01*
X534990Y265000D02*
Y270998D01*
X537989D01*
X538989Y269998D01*
Y267999D01*
X537989Y266999D01*
X534990D01*
X255000Y180998D02*
Y176000D01*
X256000Y175000D01*
X257999D01*
X258999Y176000D01*
Y180998D01*
X260998Y175000D02*
Y180998D01*
X263997D01*
X264997Y179998D01*
Y177999D01*
X263997Y176999D01*
X260998D01*
X315000Y185998D02*
Y180000D01*
X317999D01*
X318999Y181000D01*
Y184998D01*
X317999Y185998D01*
X315000D01*
X323997D02*
X321998D01*
X320998Y184998D01*
Y181000D01*
X321998Y180000D01*
X323997D01*
X324997Y181000D01*
Y184998D01*
X323997Y185998D01*
X326996D02*
Y180000D01*
X328995Y181999D01*
X330995Y180000D01*
Y185998D01*
X332994Y180000D02*
Y185998D01*
X336993Y180000D01*
Y185998D01*
X397999Y180998D02*
X396000D01*
X395000Y179998D01*
Y176000D01*
X396000Y175000D01*
X397999D01*
X398999Y176000D01*
Y179998D01*
X397999Y180998D01*
X400998D02*
Y175000D01*
Y176999D01*
X404997Y180998D01*
X401998Y177999D01*
X404997Y175000D01*
X443999Y184998D02*
X442999Y185998D01*
X441000D01*
X440000Y184998D01*
Y181000D01*
X441000Y180000D01*
X442999D01*
X443999Y181000D01*
X445998Y180000D02*
Y183999D01*
X447997Y185998D01*
X449997Y183999D01*
Y180000D01*
Y182999D01*
X445998D01*
X451996Y180000D02*
Y185998D01*
X455995Y180000D01*
Y185998D01*
X461993Y184998D02*
X460993Y185998D01*
X458994D01*
X457994Y184998D01*
Y181000D01*
X458994Y180000D01*
X460993D01*
X461993Y181000D01*
X467991Y185998D02*
X463992D01*
Y180000D01*
X467991D01*
X463992Y182999D02*
X465992D01*
X469990Y185998D02*
Y180000D01*
X473989D01*
X475988D02*
X479987Y183999D01*
X481986Y185998D02*
Y180000D01*
X484985D01*
X485985Y181000D01*
Y181999D01*
X484985Y182999D01*
X481986D01*
X484985D01*
X485985Y183999D01*
Y184998D01*
X484985Y185998D01*
X481986D01*
X487985Y180000D02*
Y183999D01*
X489984Y185998D01*
X491983Y183999D01*
Y180000D01*
Y182999D01*
X487985D01*
X497981Y184998D02*
X496982Y185998D01*
X494982D01*
X493983Y184998D01*
Y181000D01*
X494982Y180000D01*
X496982D01*
X497981Y181000D01*
X499981Y185998D02*
Y180000D01*
Y181999D01*
X503979Y185998D01*
X500980Y182999D01*
X503979Y180000D01*
X363999Y190998D02*
X360000D01*
Y187999D01*
X361999D01*
X360000D01*
Y185000D01*
X365998Y190998D02*
Y185000D01*
X369997D01*
X371996D02*
Y188999D01*
X373995Y190998D01*
X375995Y188999D01*
Y185000D01*
Y187999D01*
X371996D01*
X381993Y189998D02*
X380993Y190998D01*
X378994D01*
X377994Y189998D01*
Y188999D01*
X378994Y187999D01*
X380993D01*
X381993Y186999D01*
Y186000D01*
X380993Y185000D01*
X378994D01*
X377994Y186000D01*
X383992Y190998D02*
Y185000D01*
Y187999D01*
X387991D01*
Y190998D01*
Y185000D01*
X399987D02*
X398987Y186000D01*
X397988Y185000D01*
X396988D01*
X395988Y186000D01*
Y186999D01*
X396988Y187999D01*
X395988Y188999D01*
Y189998D01*
X396988Y190998D01*
X397988D01*
X398987Y189998D01*
Y188999D01*
X397988Y187999D01*
X398987Y186999D01*
Y186000D01*
X399987Y187999D02*
X398987Y186999D01*
X396988Y187999D02*
X397988D01*
X407984Y190998D02*
X411983D01*
X409984D01*
Y185000D01*
X417981Y190998D02*
X413982D01*
Y185000D01*
X417981D01*
X413982Y187999D02*
X415982D01*
X423979Y189998D02*
X422980Y190998D01*
X420980D01*
X419981Y189998D01*
Y188999D01*
X420980Y187999D01*
X422980D01*
X423979Y186999D01*
Y186000D01*
X422980Y185000D01*
X420980D01*
X419981Y186000D01*
X425979Y190998D02*
X429977D01*
X427978D01*
Y185000D01*
D50*
X280118Y298937D02*
G03*
X280118Y298937I-1181J0D01*
G01*
D51*
X335000Y472500D02*
X354167D01*
X335000D02*
X365000D01*
X335000Y452500D02*
X365000D01*
Y472500D01*
X335000Y452500D02*
Y472500D01*
X359016Y363898D02*
X360984D01*
X359016Y376102D02*
X360984D01*
Y363898D02*
Y376102D01*
X359016Y363898D02*
Y376102D01*
X419213Y443622D02*
X420787D01*
X419213Y446378D02*
X420787D01*
X275000Y295000D02*
X325000D01*
X275000Y345000D02*
X325000D01*
X275000Y295000D02*
Y345000D01*
X325000Y295000D02*
Y345000D01*
X435276Y303425D02*
Y306575D01*
X444724Y303425D02*
Y306575D01*
X452638Y297520D02*
X457362D01*
X459213Y323622D02*
X460787D01*
X459213Y326378D02*
X460787D01*
X494488Y428189D02*
X505512D01*
X494488Y401811D02*
X505512D01*
X494488D02*
Y428189D01*
X505512Y401811D02*
Y428189D01*
X230256Y261595D02*
Y264744D01*
X226713Y261595D02*
X230256D01*
Y270256D02*
Y273406D01*
X226713D02*
X230256D01*
X432756Y359095D02*
Y362244D01*
X429213Y359095D02*
X432756D01*
Y367756D02*
Y370905D01*
X429213D02*
X432756D01*
X519587Y278189D02*
X525413D01*
X519587Y301811D02*
X525413D01*
X534311Y287087D02*
Y292913D01*
X510689Y287087D02*
Y292913D01*
X519587Y315689D02*
X525413D01*
X519587Y339311D02*
X525413D01*
X534311Y324587D02*
Y330413D01*
X510689Y324587D02*
Y330413D01*
X253878Y189213D02*
Y190787D01*
X251122Y189213D02*
Y190787D01*
X527500Y355000D02*
Y375000D01*
X517500D02*
X527500D01*
X517500Y355000D02*
Y375000D01*
Y355000D02*
X527500D01*
X406713Y221378D02*
X408287D01*
X406713Y218622D02*
X408287D01*
X406713Y206378D02*
X408287D01*
X406713Y203622D02*
X408287D01*
X406713Y213878D02*
X408287D01*
X406713Y211122D02*
X408287D01*
X406713Y198878D02*
X408287D01*
X406713Y196122D02*
X408287D01*
X228622Y452500D02*
X308622D01*
X228622Y472500D02*
X308622D01*
Y452500D02*
Y472500D01*
X228622Y452500D02*
Y472500D01*
X234213Y438878D02*
X235787D01*
X234213Y436122D02*
X235787D01*
X462776Y265276D02*
X465039D01*
Y263012D02*
Y265276D01*
X462776Y234961D02*
X465039D01*
Y237224D01*
X434724Y234961D02*
X436988D01*
X434724D02*
Y237224D01*
Y265276D02*
X436988D01*
X434724Y263012D02*
Y265276D01*
X229213Y251122D02*
X230787D01*
X229213Y253878D02*
X230787D01*
X250256Y251594D02*
Y254744D01*
X246713Y251594D02*
X250256D01*
Y260256D02*
Y263405D01*
X246713D02*
X250256D01*
X243878Y189213D02*
Y190787D01*
X241122Y189213D02*
Y190787D01*
X452756Y349095D02*
Y352244D01*
X449213Y349095D02*
X452756D01*
Y357756D02*
Y360906D01*
X449213D02*
X452756D01*
X429213Y348622D02*
X430787D01*
X429213Y351378D02*
X430787D01*
X259213Y401378D02*
X260787D01*
X259213Y398622D02*
X260787D01*
X244213Y401378D02*
X245787D01*
X244213Y398622D02*
X245787D01*
X493425Y355276D02*
X496575D01*
X493425Y364724D02*
X496575D01*
X493425Y370276D02*
X496575D01*
X493425Y379724D02*
X496575D01*
X493425Y340276D02*
X496575D01*
X493425Y349724D02*
X496575D01*
X493425Y385276D02*
X496575D01*
X493425Y394724D02*
X496575D01*
X420276Y303425D02*
Y306575D01*
X429724Y303425D02*
Y306575D01*
X532480Y392638D02*
Y397362D01*
X435000Y452500D02*
X455000D01*
X435000Y442500D02*
Y452500D01*
Y442500D02*
X455000D01*
Y452500D01*
X419213Y421378D02*
X420787D01*
X419213Y418622D02*
X420787D01*
X519587Y234252D02*
X525413D01*
X519587Y257874D02*
X525413D01*
X534311Y243150D02*
Y248976D01*
X510689Y243150D02*
Y248976D01*
X494213Y231378D02*
X495787D01*
X494213Y228622D02*
X495787D01*
X383333Y455000D02*
Y468333D01*
X385000Y470000D01*
X386667Y468333D01*
Y455000D02*
Y468333D01*
X393333Y455000D02*
Y468333D01*
X395000Y470000D01*
X396667Y468333D01*
Y455000D02*
Y468333D01*
X403333Y455000D02*
Y468333D01*
X405000Y470000D01*
X406667Y468333D01*
Y455000D02*
Y468333D01*
X380000Y450000D02*
X410000D01*
Y455000D01*
X380000Y450000D02*
Y455000D01*
X410000D01*
X370354Y267559D02*
Y312441D01*
X373307D01*
X386693Y267559D02*
X389646D01*
Y312441D01*
X386693D02*
X389646D01*
X370354Y267559D02*
X373307D01*
X508583Y182972D02*
X516063D01*
X508583Y192028D02*
X516063D01*
X508583Y182972D02*
Y192028D01*
X532598Y184547D02*
Y190453D01*
X523937Y182972D02*
X530630D01*
Y192028D02*
X532598Y190453D01*
X530630Y182972D02*
X532598Y184547D01*
X523937Y192028D02*
X530630D01*
X508583Y152972D02*
X516063D01*
X508583Y162028D02*
X516063D01*
X508583Y152972D02*
Y162028D01*
X532598Y154547D02*
Y160453D01*
X523937Y152972D02*
X530630D01*
Y162028D02*
X532598Y160453D01*
X530630Y152972D02*
X532598Y154547D01*
X523937Y162028D02*
X530630D01*
X508583Y167972D02*
X516063D01*
X508583Y177028D02*
X516063D01*
X508583Y167972D02*
Y177028D01*
X532598Y169547D02*
Y175453D01*
X523937Y167972D02*
X530630D01*
Y177028D02*
X532598Y175453D01*
X530630Y167972D02*
X532598Y169547D01*
X523937Y177028D02*
X530630D01*
X508583Y137972D02*
X516063D01*
X508583Y147028D02*
X516063D01*
X508583Y137972D02*
Y147028D01*
X532598Y139547D02*
Y145453D01*
X523937Y137972D02*
X530630D01*
Y147028D02*
X532598Y145453D01*
X530630Y137972D02*
X532598Y139547D01*
X523937Y147028D02*
X530630D01*
X225000Y433287D02*
Y453287D01*
X215000D02*
X225000D01*
X215000Y433287D02*
Y453287D01*
Y433287D02*
X225000D01*
D52*
X368000Y469500D02*
X366334D01*
X367167D01*
Y464502D01*
X368000Y465335D01*
X366668Y459500D02*
X370000D01*
X366668Y456168D01*
Y455335D01*
X367501Y454502D01*
X369167D01*
X370000Y455335D01*
X330668Y464502D02*
X334000D01*
Y467001D01*
X332334Y466168D01*
X331501D01*
X330668Y467001D01*
Y468667D01*
X331501Y469500D01*
X333167D01*
X334000Y468667D01*
X330668Y454502D02*
X332334Y455335D01*
X334000Y457001D01*
Y458667D01*
X333167Y459500D01*
X331501D01*
X330668Y458667D01*
Y457834D01*
X331501Y457001D01*
X334000D01*
X313622Y469500D02*
X311956D01*
X312789D01*
Y464502D01*
X313622Y465335D01*
X310290Y459500D02*
X313622D01*
X310290Y456168D01*
Y455335D01*
X311123Y454502D01*
X312789D01*
X313622Y455335D01*
M02*
