%FSLAX25Y25*%
%MOIN*%
G70*
G01*
G75*
G04 Layer_Color=16711935*
%ADD10C,0.01181*%
%ADD11C,0.00984*%
%ADD12R,0.05906X0.05906*%
%ADD13R,0.03150X0.03543*%
%ADD14R,0.07874X0.21654*%
%ADD15R,0.02756X0.03543*%
%ADD16R,0.05512X0.05512*%
%ADD17R,0.10236X0.04331*%
%ADD18R,0.04331X0.10236*%
%ADD19R,0.04528X0.02362*%
%ADD20R,0.03543X0.02756*%
%ADD21R,0.20079X0.20079*%
%ADD22R,0.00984X0.02362*%
%ADD23R,0.02362X0.00984*%
%ADD24R,0.03543X0.03150*%
%ADD25R,0.09449X0.03937*%
%ADD26R,0.09449X0.12598*%
%ADD27R,0.05512X0.05512*%
%ADD28R,0.06890X0.02165*%
%ADD29R,0.02165X0.06890*%
%ADD30R,0.04331X0.02559*%
%ADD31R,0.05433X0.01575*%
%ADD32R,0.08268X0.05630*%
%ADD33R,0.08268X0.05709*%
%ADD34R,0.07480X0.04626*%
%ADD35R,0.07480X0.09350*%
%ADD36C,0.04724*%
%ADD37C,0.03937*%
%ADD38C,0.01000*%
%ADD39C,0.19685*%
%ADD40C,0.20472*%
%ADD41R,0.05906X0.05906*%
%ADD42C,0.05906*%
%ADD43C,0.06299*%
%ADD44C,0.11024*%
%ADD45C,0.07874*%
%ADD46R,0.06299X0.06299*%
%ADD47C,0.03543*%
%ADD48C,0.03150*%
%ADD49C,0.00000*%
%ADD50C,0.02362*%
%ADD51C,0.00787*%
%ADD52C,0.00800*%
%ADD53R,0.06693X0.06693*%
%ADD54R,0.03937X0.04331*%
%ADD55R,0.08661X0.22441*%
%ADD56R,0.03543X0.04331*%
%ADD57R,0.06299X0.06299*%
%ADD58R,0.11024X0.05118*%
%ADD59R,0.05118X0.11024*%
%ADD60R,0.05315X0.03150*%
%ADD61R,0.04331X0.03543*%
%ADD62R,0.20866X0.20866*%
%ADD63R,0.01575X0.02953*%
%ADD64R,0.02953X0.01575*%
%ADD65R,0.04331X0.03937*%
%ADD66R,0.10236X0.04724*%
%ADD67R,0.10236X0.13386*%
%ADD68R,0.07677X0.02953*%
%ADD69R,0.02953X0.07677*%
%ADD70R,0.05118X0.03347*%
%ADD71R,0.06221X0.02362*%
%ADD72R,0.09055X0.06417*%
%ADD73R,0.09055X0.06496*%
%ADD74R,0.08268X0.05413*%
%ADD75R,0.08268X0.10138*%
%ADD76C,0.21260*%
%ADD77R,0.06693X0.06693*%
%ADD78C,0.06693*%
%ADD79C,0.07087*%
%ADD80C,0.11811*%
%ADD81C,0.08661*%
%ADD82R,0.07087X0.07087*%
D40*
X533898Y204465D02*
D03*
Y421000D02*
D03*
X469331Y204465D02*
D03*
X211063Y125000D02*
D03*
Y465000D02*
D03*
X533898Y125000D02*
D03*
X469331Y401315D02*
D03*
X211063Y204465D02*
D03*
X533898Y465000D02*
D03*
D53*
X405000Y445000D02*
D03*
X440000Y447500D02*
D03*
X303622Y467500D02*
D03*
X360000D02*
D03*
D76*
X211063Y421000D02*
D03*
Y401315D02*
D03*
D77*
X220000Y448287D02*
D03*
X522500Y370000D02*
D03*
D78*
X220000Y438287D02*
D03*
X395000Y445000D02*
D03*
X385000D02*
D03*
X450000Y447500D02*
D03*
X303622Y457500D02*
D03*
X293622Y467500D02*
D03*
Y457500D02*
D03*
X283622Y467500D02*
D03*
Y457500D02*
D03*
X273622Y467500D02*
D03*
Y457500D02*
D03*
X263622Y467500D02*
D03*
Y457500D02*
D03*
X253622Y467500D02*
D03*
Y457500D02*
D03*
X243622Y467500D02*
D03*
Y457500D02*
D03*
X233622Y467500D02*
D03*
Y457500D02*
D03*
X522500Y360000D02*
D03*
X360000Y457500D02*
D03*
X350000Y467500D02*
D03*
Y457500D02*
D03*
X340000Y467500D02*
D03*
Y457500D02*
D03*
D79*
X480000Y170000D02*
D03*
X460000D02*
D03*
Y120000D02*
D03*
X480000D02*
D03*
X410000Y170000D02*
D03*
X390000D02*
D03*
Y120000D02*
D03*
X410000D02*
D03*
X340000Y170000D02*
D03*
X320000D02*
D03*
Y120000D02*
D03*
X340000D02*
D03*
X270000Y170000D02*
D03*
X250000D02*
D03*
Y120000D02*
D03*
X270000D02*
D03*
X250590Y421000D02*
D03*
X260591D02*
D03*
X270590D02*
D03*
X280591D02*
D03*
X290591D02*
D03*
X300590D02*
D03*
X310591D02*
D03*
X320590D02*
D03*
X330591D02*
D03*
X340591D02*
D03*
X350590D02*
D03*
X360591D02*
D03*
X370590D02*
D03*
X380591D02*
D03*
X390591D02*
D03*
D80*
X512500Y236063D02*
D03*
Y256063D02*
D03*
X532500D02*
D03*
Y236063D02*
D03*
X512500Y317500D02*
D03*
Y337500D02*
D03*
X532500D02*
D03*
Y317500D02*
D03*
X512500Y280000D02*
D03*
Y300000D02*
D03*
X532500D02*
D03*
Y280000D02*
D03*
D81*
X522500Y246063D02*
D03*
Y327500D02*
D03*
Y290000D02*
D03*
D82*
X240591Y421000D02*
D03*
M02*
